# xmcd
#
# Track frame offsets:
#	150
#	18915
#	39755
#	61230
#	83327
#	104442
#	121990
#	140720
#	161822
#	181957
#	202855
#	220482
#	243245
#	263257
#
# Disc length: 3788 seconds
#
# Revision: 1
# Processed by: cddbd v1.5PL3 Copyright (c) Steve Scherf et al.
# Submitted via: CDex 1.50Beta5
#
DISCID=b00eca0e
DTITLE=坂本冬美 - 坂本冬美ニュー・ベスト
DYEAR=1900
DGENRE=World
TTITLE0=祝い酒
TTITLE1=夢ほたる
TTITLE2=男なら
TTITLE3=豊後水道
TTITLE4=王将一代小春しぐれ
TTITLE5=恋のわかれ道
TTITLE6=祝い酒(カラオケ)
TTITLE7=あばれ太鼓
TTITLE8=乱れ花
TTITLE9=命のきずな
TTITLE10=春待ち心
TTITLE11=滝の白糸
TTITLE12=男の華
TTITLE13=あばれ太鼓(カラオケ)
EXTD=
EXTT0=
EXTT1=
EXTT2=
EXTT3=
EXTT4=
EXTT5=
EXTT6=
EXTT7=
EXTT8=
EXTT9=
EXTT10=
EXTT11=
EXTT12=
EXTT13=
PLAYORDER=
